<svg width="3200" height="800" viewBox="0 0 3200 800" fill="none" xmlns="http://www.w3.org/2000/svg">
  <style>
    .background {
      fill: white;
    }
    .border {
      fill: #000000;
    }
    .primary {
      fill: #FEBD52;
    }
    .secondary {
      fill: #F8D9A5;
    }
    @media (prefers-color-scheme: dark) {
      .background {
        fill: #2A2A2A;
      }
      .border {
        fill: #E0E0E0;
      }
      .primary {
        fill: #FEBD52;
      }
      .secondary {
        fill: #F8D9A5;
      }
    }
  </style>
  <rect class="background" width="3200" height="800"/>
  <path class="border" d="M197.358 203.459C196.071 204.141 195.008 204.939 193.935 205.922C188.052 211.311 182.885 217.873 177.699 223.94C177.586 224.075 177.481 224.215 177.368 224.35C157.799 247.32 142.17 273.62 130.719 301.653C129.816 303.848 128.91 306.041 128.06 308.257C127.553 309.587 127.077 310.929 126.589 312.267C125.428 315.427 124.314 318.603 123.262 321.802C122.984 322.652 122.712 323.503 122.441 324.355C121.235 328.137 120.107 331.942 119.053 335.772C118.927 336.229 118.795 336.684 118.672 337.142C115.078 350.45 112.378 364.021 110.667 377.785C110.553 378.689 110.481 379.597 110.375 380.502C109.994 383.823 109.646 387.149 109.376 390.489C109.22 392.39 109.114 394.291 108.995 396.193C108.903 397.699 108.764 399.198 108.695 400.706C108.651 401.604 108.66 402.499 108.624 403.396C108.588 404.374 108.5 405.352 108.473 406.33C108.439 407.48 108.479 408.623 108.458 409.772C108.405 412.638 108.39 415.5 108.418 418.36C108.438 420.312 108.468 422.262 108.525 424.21C108.61 427.113 108.75 430.008 108.918 432.902C109.029 434.821 109.131 436.74 109.278 438.654C109.503 441.565 109.8 444.465 110.108 447.364C110.307 449.25 110.479 451.139 110.713 453.019C111.068 455.849 111.509 458.662 111.943 461.478C112.241 463.423 112.493 465.376 112.828 467.313C113.08 468.757 113.403 470.185 113.675 471.625C114.906 478.168 116.346 484.661 117.999 491.095C118.215 491.934 118.4 492.781 118.624 493.618C119.607 497.317 120.699 500.981 121.82 504.637C122.015 505.27 122.192 505.909 122.392 506.541C123.627 510.476 124.959 514.376 126.352 518.257C126.433 518.482 126.51 518.708 126.592 518.933C140.808 558.233 163.012 594.604 192.397 625.463C193.208 626.325 194.035 627.058 194.939 627.701C196.291 629.164 197.594 630.632 198.958 632.103C198.533 623.297 197.51 614.538 197.16 605.722C196.985 601.287 196.992 596.87 197.054 592.452C197.205 587.061 197.479 581.757 198.137 576.826C198.434 576.812 198.721 576.769 199.018 576.754C203.475 576.504 207.856 576.142 212.174 575.686C213.953 575.496 215.715 575.266 217.478 575.034C221.219 574.55 224.911 573.961 228.557 573.285C229.516 573.103 230.485 572.953 231.438 572.758C236.837 571.667 242.147 570.344 247.365 568.748C250.228 567.88 253.055 566.925 255.855 565.907C256.422 565.696 256.99 565.485 257.554 565.268C278.443 557.396 297.473 545.213 313.693 527.418C333.35 505.852 347.647 476.19 351.999 447.079C352.181 446.132 352.447 445.221 352.615 444.269C353.278 444.196 353.957 444.197 354.622 444.135L408.889 443.986L463.155 444.135C463.82 444.197 464.499 444.196 465.162 444.269C465.33 445.221 465.596 446.132 465.778 447.079C470.13 476.19 484.427 505.852 504.084 527.418C520.304 545.213 539.334 557.396 560.223 565.268C560.787 565.485 561.355 565.696 561.922 565.907C564.722 566.925 567.549 567.88 570.412 568.748C575.63 570.344 580.94 571.667 586.339 572.758C587.292 572.953 588.261 573.103 589.22 573.285C592.866 573.961 596.558 574.55 600.299 575.034C602.062 575.266 603.824 575.496 605.603 575.686C609.921 576.142 614.302 576.504 618.759 576.754C619.056 576.769 619.343 576.812 619.64 576.826C620.298 581.757 620.572 587.061 620.723 592.452C620.784 596.87 620.792 601.287 620.617 605.722C620.267 614.538 619.244 623.297 618.819 632.103C620.183 630.632 621.486 629.164 622.838 627.701C623.742 627.058 624.569 626.326 625.38 625.463C654.765 594.604 676.969 558.233 691.185 518.933C691.267 518.708 691.344 518.482 691.425 518.257C692.818 514.376 694.15 510.476 695.385 506.541C695.585 505.909 695.762 505.27 695.957 504.637C697.078 500.981 698.17 497.317 699.153 493.618C699.377 492.781 699.562 491.934 699.778 491.095C701.431 484.661 702.871 478.168 704.102 471.625C704.374 470.185 704.697 468.757 704.949 467.313C705.284 465.376 705.536 463.423 705.834 461.478C706.268 458.662 706.709 455.849 707.063 453.019C707.298 451.139 707.47 449.25 707.669 447.364C707.977 444.465 708.274 441.565 708.499 438.654C708.646 436.74 708.748 434.821 708.859 432.902C709.027 430.008 709.167 427.113 709.252 424.21C709.309 422.262 709.339 420.312 709.359 418.36C709.387 415.5 709.372 412.638 709.319 409.772C709.298 408.623 709.338 407.48 709.304 406.33C709.277 405.352 709.189 404.374 709.153 403.396C709.117 402.499 709.126 401.604 709.082 400.706C709.013 399.198 708.874 397.699 708.782 396.193C708.663 394.291 708.557 392.39 708.401 390.489C708.131 387.149 707.783 383.823 707.402 380.502C707.296 379.597 707.224 378.689 707.11 377.785C705.397 364.008 702.695 350.425 699.097 337.106C698.981 336.676 698.857 336.249 698.74 335.82C697.682 331.974 696.547 328.152 695.336 324.355C695.065 323.503 694.793 322.652 694.515 321.802C693.463 318.603 692.349 315.427 691.188 312.267C690.7 310.929 690.224 309.587 689.717 308.257C688.867 306.041 687.961 303.848 687.058 301.653C675.607 273.621 659.977 247.321 640.409 224.352C640.296 224.217 640.191 224.075 640.078 223.94C634.892 217.873 629.725 211.311 623.842 205.922C622.769 204.939 621.706 204.141 620.419 203.459C620.682 206.19 620.774 209.239 620.889 212.241C620.593 221.912 620.339 231.629 620.445 241.326C620.2 246.189 620.016 251.313 619.726 255.615C588.857 256.032 556.45 263.624 530.894 281.376C518.096 290.308 506.883 301.124 497.439 313.302C497.2 313.594 496.962 313.888 496.727 314.181C496.089 315.016 495.462 315.856 494.842 316.704C478.229 338.234 470.869 360.022 464.41 388.73C464.261 388.739 464.109 388.733 463.96 388.742C446.101 388.737 428.224 388.06 410.376 388.288L409.655 388.28C409.4 388.275 409.144 388.287 408.889 388.283C408.634 388.287 408.379 388.275 408.124 388.28L407.403 388.288C389.554 388.06 371.676 388.737 353.817 388.742C353.668 388.733 353.516 388.739 353.367 388.73C346.91 360.034 339.552 338.251 322.954 316.73C322.322 315.866 321.683 315.009 321.033 314.158C320.809 313.88 320.582 313.6 320.355 313.322C310.908 301.136 299.688 290.313 286.883 281.376C261.327 263.624 228.92 256.032 198.051 255.615C197.761 251.313 197.577 246.189 197.332 241.326C197.438 231.629 197.184 221.912 196.888 212.241C197.003 209.239 197.095 206.19 197.358 203.459ZM203.217 288.006C205.674 288.096 208.216 288.057 210.658 288.301C244.542 292.049 273.08 306.206 294.68 333.026C305.954 347.025 313.89 362.726 317.727 380.057C318.136 382.069 318.501 384.094 318.853 386.124C318.959 386.776 319.107 387.411 319.201 388.067C315.917 387.755 312.667 387.23 309.424 386.682C307.39 386.31 305.367 385.909 303.352 385.492C301.281 385.044 299.217 384.567 297.17 384.023C295.913 383.709 294.658 383.368 293.408 383.012C289.959 381.988 286.542 380.858 283.182 379.563C282.939 379.468 282.692 379.385 282.45 379.288C279.644 378.188 276.909 376.903 274.176 375.616C272.823 374.959 271.433 374.376 270.105 373.672C270.083 373.66 270.061 373.647 270.039 373.635C251.142 363.596 234.814 348.812 222.529 331.266C221.438 329.716 220.508 328.07 219.492 326.475C216.351 321.387 213.454 316.13 211.019 310.607C208.989 306.106 207.304 301.485 205.706 296.832C204.8 293.914 203.905 290.992 203.217 288.006ZM614.56 288.006C613.872 290.992 612.977 293.914 612.071 296.832C610.473 301.485 608.788 306.106 606.758 310.607C604.323 316.13 601.426 321.387 598.285 326.475C597.269 328.07 596.339 329.716 595.248 331.266C582.963 348.812 566.635 363.596 547.738 373.635C547.72 373.645 547.703 373.657 547.684 373.666C547.681 373.668 547.676 373.67 547.672 373.672C546.344 374.376 544.954 374.959 543.601 375.616C540.868 376.903 538.133 378.188 535.327 379.288C535.085 379.385 534.838 379.468 534.595 379.563C531.235 380.858 527.818 381.988 524.369 383.012C523.118 383.368 521.864 383.709 520.607 384.023C518.56 384.567 516.496 385.044 514.425 385.492C512.41 385.909 510.387 386.31 508.353 386.682C505.109 387.23 501.86 387.755 498.576 388.067C498.67 387.411 498.818 386.776 498.924 386.124C499.276 384.094 499.641 382.069 500.05 380.057C503.887 362.726 511.823 347.025 523.097 333.026C544.696 306.206 573.235 292.049 607.119 288.301C609.561 288.057 612.103 288.096 614.56 288.006ZM318.475 444.427L318.575 444.446C318.804 444.887 318.828 444.873 318.946 445.447C319.04 445.903 319.037 446.427 319.002 446.967C311.285 479.239 293.777 507.268 265.32 525.302C251.291 534.165 235.512 539.89 219.063 542.085C214.05 542.758 208.785 542.603 203.854 543.51C203.875 542.99 203.989 542.475 204.063 541.958C204.779 539.322 205.619 536.718 206.492 534.122C206.956 533.023 207.41 531.895 207.841 530.833C214.038 515.584 221.178 501.441 231.975 488.853C252.386 465.057 285.046 447.395 316.63 444.551C317.246 444.513 317.855 444.454 318.475 444.427ZM499.302 444.427C499.922 444.454 500.531 444.513 501.147 444.551C532.731 447.395 565.391 465.057 585.802 488.853C596.599 501.441 603.741 515.584 609.937 530.833C610.368 531.892 610.819 533.017 611.282 534.113C612.156 536.712 612.997 539.32 613.714 541.958C613.788 542.475 613.902 542.99 613.923 543.51C608.991 542.603 603.727 542.758 598.714 542.085C582.265 539.89 566.486 534.165 552.457 525.302C524 507.268 506.492 479.239 498.775 446.967C498.74 446.427 498.737 445.903 498.831 445.447C498.949 444.873 498.973 444.887 499.202 444.446L499.302 444.427Z"/>
  <path class="border" d="M408.515 467.643C410.372 469.75 413.493 485.2 414.583 488.914C416.953 496.739 419.768 504.421 423.015 511.925C431.399 531.441 443.319 550.646 457.392 566.563C498.199 612.719 550.455 635.463 611.448 639.215C599.748 650.445 587.149 659.694 573.582 668.541C523.657 701.096 467.876 716.156 408.558 717.217C348.093 715.901 291.26 699.536 240.788 665.751C228.548 657.558 216.214 648.485 205.805 638.035C245.696 638.055 284.696 626.238 317.869 604.08C366.643 572.051 396.772 524.38 408.515 467.643ZM289.986 654.417C297.289 658.056 304.677 661.521 312.144 664.812C334.883 673.986 358.738 680.443 383.223 682.508C385.696 682.716 390.157 683.694 392.412 683.084C392.657 682.741 392.983 682.443 393.145 682.054C393.573 681.03 393.046 678.533 393.118 677.339C394.725 650.77 394.497 623.535 393.504 596.915C393.388 593.8 393.836 588.668 392.897 585.746C392.714 585.18 392.628 585.115 392.324 584.698C385.298 591.19 379.019 598.443 372.053 605.011C356.384 619.602 338.719 631.891 319.59 641.506C309.925 646.369 299.634 649.702 289.986 654.417ZM424.569 683.11C432.472 682.222 440.4 681.952 448.294 680.871C470.348 677.85 491.325 671.682 512.167 663.991C518.552 661.476 525.55 659.185 531.42 655.59C500.328 644.652 470.214 629.782 446.132 606.831C442.79 603.609 439.557 600.275 436.437 596.837C433.039 593.057 428.786 586.599 424.47 584.07C423.993 607.949 424.382 631.908 424.415 655.793C424.427 664.787 425.049 674.162 424.569 683.11Z"/>
  <path class="border" d="M407.342 114.765L416.573 114.928C427.334 115.027 438.188 116.338 448.834 117.849C495.235 124.434 537.919 141.34 576.903 167.207C588.727 175.053 599.992 182.984 609.961 193.155C559.757 193.109 505.851 218.316 470.065 252.778C443.718 277.866 424.44 309.449 414.17 344.353C412.365 350.543 409.891 357.782 409.765 364.24L409.747 364.703L409.433 364.711C405.828 357.903 404.351 346.401 401.802 338.734C392.877 311.699 378.634 286.724 359.909 265.277C319.516 219.057 268.92 197.273 208.283 193.231C208.713 192.703 209.133 192.2 209.604 191.708C217.515 183.427 227.328 176.646 236.6 170C286.711 134.083 345.763 115.751 407.342 114.765ZM289.903 176.691C307.257 184.489 325.196 192.428 341.075 203.001C359.807 213.582 380.791 233.337 394.327 250.087C395.167 222.657 395.218 194.989 394.942 167.546C394.876 160.992 394.488 154.446 394.445 147.895C392.986 147.951 391.46 147.921 390.015 148.113C357.69 150.229 317.534 159.246 289.903 176.691ZM424.023 249.846C439.5 231.187 457.783 214.317 478.668 201.828C485.566 197.762 492.365 193.474 499.467 189.771C508.648 184.987 518.255 181.046 527.776 177.004C501.558 162.41 473.866 152.945 444.055 149.061C437.369 148.19 430.578 148.403 423.939 147.588C424.108 165.831 423.531 184.052 423.601 202.304C423.628 209.219 424.167 216.066 424.281 222.958C424.429 231.863 424.238 240.938 424.023 249.846Z"/>
  <path class="primary" d="M159.023 318.895C162.355 310.547 166.259 302.575 170.315 294.557C172.318 299.524 174.015 304.661 175.831 309.703L178.29 316.148C194.37 351.772 218.705 382.658 253.899 401.012L181.099 401.172C167.564 401.24 153.974 401.96 140.453 401.138C143.65 370.375 147.892 347.8 159.023 318.895Z"/>
  <path class="primary" d="M646.698 294.952C647.081 295.176 647.198 295.218 647.547 295.584C651.072 299.289 653.245 306.294 655.261 310.972C667.725 339.9 675.567 369.482 676.659 401.051C650.39 400.962 624.121 401.106 597.855 401.479C587.708 401.546 577.506 401.631 567.367 401.214C596.881 383.831 620.321 357.776 634.5 326.596C639.232 316.34 642.782 305.536 646.698 294.952Z"/>
  <path class="secondary" d="M165.23 430.728C157.106 430.498 148.956 430.561 140.828 430.498C142.56 469.301 151.295 502.177 171.185 535.62C176.312 521.935 181.146 508.108 188.192 495.259C202.692 467.832 225.46 446.118 252.343 431.066C223.4 429.986 194.22 431.036 165.23 430.728Z"/>
  <path class="secondary" d="M652.769 430.728C660.893 430.498 669.043 430.561 677.171 430.498C675.44 469.301 666.704 502.177 646.814 535.62C641.687 521.935 636.853 508.108 629.807 495.259C615.307 467.832 592.539 446.118 565.656 431.066C594.6 429.986 623.779 431.036 652.769 430.728Z"/>
  <path class="border" d="M2308.01 279.853C2359.8 273.306 2411.11 295.234 2442.19 337.203C2473.24 379.171 2479.24 434.642 2457.85 482.279C2436.46 529.916 2391.03 562.296 2339.02 566.966C2260.6 574.009 2191 516.929 2182.54 438.644C2174.06 360.359 2229.88 289.726 2308.01 279.853ZM2373.2 528.632C2389.12 521.699 2402.3 500.943 2408.42 485.523C2422.38 450.283 2423.38 403.359 2408.03 368.431C2401 352.423 2386.31 329.539 2369.24 323.048C2365.04 321.455 2360.45 321.093 2356.27 322.978C2344.26 328.396 2341.62 351.039 2328.91 349.638C2324.94 345.761 2322.26 342.476 2322.56 336.63C2323.1 325.722 2332.19 315.601 2339.86 308.787C2340.96 307.818 2341.35 306.923 2341.74 305.546C2331.27 305.16 2321.07 304.753 2310.64 305.972C2284.14 315.035 2264.9 328.769 2252.26 354.662C2234.39 391.261 2234.37 440.712 2247.64 478.755C2255.64 501.734 2270 521.74 2292.4 532.388C2311.99 541.701 2339.63 545.183 2360.37 537.804C2364.43 536.359 2370.7 533.58 2372.83 529.634C2373.01 529.322 2373.08 528.966 2373.2 528.632Z"/>
  <path class="border" d="M1593.08 400.953C1594.17 375.596 1597.25 333.112 1592.77 309.121C1589.72 292.826 1580.31 291.867 1568.37 283.119C1564.95 280.612 1562.88 278.772 1562.16 274.522L1564.62 272.205C1579.21 271.28 1664.13 269.522 1671.25 273.676C1671.54 275.996 1671.86 278.358 1671.93 280.696C1672.21 290.035 1652.17 290.754 1646.32 297.854C1640.43 305.006 1640.94 522.52 1644.8 547.098L1646.55 545.391L1645.62 549.28C1653.39 556.053 1664.04 553.477 1670.66 561.993C1671.37 567.293 1672.09 567.895 1669.02 572.147C1660.94 575.174 1650.54 572.889 1642.1 572.035C1621.54 570.889 1590.83 576.033 1573.06 573.022C1567.68 572.11 1565.46 571.114 1562.39 566.703L1564.24 561.258C1570.14 556.92 1580.54 556.557 1587.72 555.43C1598.04 515.731 1593.25 471.504 1592.3 430.735L1446.31 429.496C1447.04 454.131 1448.03 478.795 1448.39 503.438C1448.55 514.764 1447.39 526.662 1448.41 537.893C1449.9 554.42 1463.5 551.203 1472.47 560.059C1475.92 563.465 1475.01 566.258 1475.05 570.789C1474.22 572.153 1473.3 574.561 1471.8 575.11C1464.42 577.813 1450.79 572.95 1442.47 572.022C1424.67 570.036 1379.13 576.834 1368.24 571.823C1367.7 570.61 1367.03 569.315 1366.94 567.955C1365.93 553.606 1385.47 558.448 1393.41 549.998C1398.21 522.502 1398.9 336.604 1394.12 308.662C1391.84 295.346 1380.18 293.563 1371.18 286.268C1366.15 282.188 1366.3 277.508 1365.38 271.639C1390.68 273.166 1439.15 269.274 1460.02 273.723C1465.96 274.989 1468.75 276.528 1471.97 281.617L1470.64 286.782C1465.93 293.641 1456.57 296.567 1449.2 299.867C1447.6 332.537 1448.92 365.733 1449.06 398.459C1497 401.215 1545.08 400.789 1593.08 400.953Z"/>
  <path class="border" d="M2891.47 216.131C2907.32 214.147 2923.24 214.116 2938.81 218.211C2951.89 221.659 2965.35 228.358 2972.23 240.588C2976.29 247.825 2978.4 258.752 2975.86 266.836C2973.95 272.934 2970.25 276.09 2964.75 278.811C2958.46 281.926 2949.9 285.586 2942.87 282.69C2933.79 278.946 2929.65 263.61 2925.76 255.289C2922.62 248.559 2918.26 243.118 2910.98 240.629C2873.55 227.85 2853.44 267.887 2825.7 281.981C2835.2 290.409 2841.91 317.215 2846.97 329.957C2870.92 390.346 2918.52 526.077 2961.45 568.936C2979.41 586.891 2992.07 585.428 3009.73 598.037L3007.97 601.403C2997.17 607.276 2983.59 608.09 2971.45 607.873C2924.92 607.038 2914.94 579.039 2887.27 551.274L2886.09 550.108C2886.15 549.684 2886.21 549.26 2886.25 548.834C2886.33 547.961 2852.36 471.741 2849.1 468.02C2818.14 468.235 2787.19 468.746 2756.23 469.553C2753.32 489.846 2731.54 517.415 2735.22 537.01C2736.43 543.448 2757.79 546.069 2763.87 549.891C2766.46 554.713 2766.19 555.098 2765.2 560.551C2761.43 562.733 2757.54 563.237 2753.28 563.616C2739.36 564.854 2660.7 565.661 2654.22 560.12C2661.43 549.217 2675.96 546.537 2687.56 542.76C2696.17 534.33 2706.07 493.116 2712.09 479.051C2722.7 454.221 2734.57 429.955 2745.25 405.164C2761.07 368.471 2775.66 331.166 2794.82 296.022C2817.03 255.286 2846.56 229.338 2891.47 216.131ZM2761.56 439.057L2798.34 439.092C2811.6 438.883 2825.06 439.077 2838.28 438.051C2839.55 429.165 2814.28 366.565 2807.97 354.315L2803.03 352.848C2803.26 363.387 2773.95 425.961 2765.9 435.405C2764.67 436.852 2763.14 438.01 2761.56 439.057Z"/>
  <path class="border" d="M1876.58 293.92C1867.63 290.848 1856.61 292.531 1849.49 285.567C1847.59 281.352 1846.92 280.328 1847.49 275.82C1850.53 272.736 1853.72 271.75 1857.87 271.131C1869.22 269.438 1910.77 268.822 1919.73 275.254C1956.86 329.266 1999.41 381.1 2039.96 432.692C2053.28 449.639 2068.59 465.869 2080.82 483.551C2083.91 488.008 2085.84 491.512 2085.9 497.035C2089.49 491.918 2091 487.281 2091.68 481.07C2093.81 462.135 2092.4 320.487 2089.43 304.934C2088.97 302.403 2088.18 299.957 2087.25 297.557C2083.91 287.514 2065.63 279.113 2056.47 274.584C2055 273.873 2053.52 273.213 2052.01 272.602C2086.29 272.819 2121.6 270.295 2155.68 272.238C2155.55 272.563 2155.43 272.891 2155.29 273.209C2149.88 285.012 2130.24 284.957 2126.09 294.25C2118.11 312.131 2119.43 523.291 2126.47 545.016C2130.8 558.338 2144.49 567.559 2153.42 577.77C2162.97 577.682 2171.62 577.244 2180.59 581.104L2180 581.27L2185.31 584.754C2180.53 591.903 2172.97 593.803 2164.71 595.465C2142.87 599.862 2124.53 597.174 2106.09 584.688C2071.82 561.481 2012.44 475.678 1983.79 438.873C1960.88 409.467 1936.86 381.176 1915.1 350.887C1914.75 389.342 1914.66 427.799 1914.82 466.254C1914.84 487.072 1913.18 509.436 1915.83 530.053C1916.63 536.262 1917.63 542.731 1922.04 547.528C1931.63 557.949 1956.84 556.371 1956.78 571.457C1956.78 573.828 1956.47 575.17 1955.61 577.33C1938.67 578.192 1921.13 572.375 1903.77 572.205C1889.24 572.063 1865.86 576.719 1852.48 571.838C1852.22 566.619 1852.08 565.785 1854.72 561.346C1861.44 558.016 1879.5 555.604 1882.31 548.701C1886.61 538.145 1885.8 338.682 1886.07 311.24L1876.58 293.92Z"/>
  <path class="border" d="M2449.26 253.24C2458.32 252.146 2468.55 251.527 2477.62 252.761C2506.93 256.754 2531.91 277.92 2549.04 301.002C2557.01 311.726 2563.59 323.4 2569.34 335.447C2581.43 360.849 2589.84 387.582 2600.14 413.703C2606.78 430.525 2615.62 447.15 2620.49 464.558C2621.72 468.994 2621.89 472.951 2621.23 477.478C2621.48 477.252 2621.76 477.033 2621.99 476.794C2622.4 476.4 2622.79 475.98 2623.2 475.582C2624.45 474.347 2625.84 473.123 2626.76 471.599C2636.15 456.289 2652.11 406.767 2660.12 387.033C2665.06 374.898 2690.25 325.445 2690.49 315.568C2690.53 313.791 2689.63 311.201 2689.28 309.392C2681.72 310.486 2673.75 312.052 2666.11 312.304C2660.8 312.48 2657.95 310.619 2654.32 307.074L2655.08 302.752C2661.45 295.457 2743.28 259.435 2754.24 258.603C2755.23 259.97 2756.07 260.42 2755.94 262.179C2754.96 275.416 2728.34 322.339 2718.2 330.771C2718.48 332.16 2718.71 333.339 2718.42 334.755C2716.5 343.568 2685.86 408.326 2679.8 422.677C2659.94 469.634 2643.71 519.703 2621.56 565.494C2618.93 570.929 2615.31 574.298 2610.66 578.039C2611.6 562.283 2522.7 356.158 2508.01 331.033C2495.21 309.111 2475.51 280.084 2449.34 273.416L2448.2 273.138C2436.48 270.195 2422.21 278.17 2410.04 279.134L2408.46 276.175L2410.21 271.468C2420.16 261.326 2436.07 257.355 2449.26 253.24Z"/>
  <path class="border" d="M1217.64 266.277C1236.38 265.4 1254.06 265.258 1272.18 270.97C1291.72 277.136 1312.26 289.689 1321.7 308.582C1326.37 317.922 1327.78 328.803 1324.3 338.777C1322.08 345.178 1318.92 348.138 1312.99 351.019C1295.59 347.072 1292.79 309.539 1256.43 294.056C1241.22 287.582 1224.68 287.181 1209.34 293.59C1197.36 298.595 1182.15 309.65 1177.2 322.164C1161.86 360.931 1242.15 389.181 1266.61 403.672C1293.01 419.312 1327.03 443.431 1339.71 472.541C1346.92 489.099 1345.6 505.597 1338.84 522.031C1327.65 549.219 1305.23 563.31 1279.41 574.254C1276.39 575.156 1273.36 576.021 1270.31 576.847C1243.26 584.172 1212.68 581.709 1188.26 567.627C1171.96 558.226 1147.6 538.656 1142.68 520.068C1143.55 514.4 1143.75 514.238 1148.01 510.365C1162.49 509.195 1187.87 540.965 1213.06 548.939C1230.99 554.615 1254.36 555.113 1271.25 545.845C1287.07 537.16 1291.62 522.068 1296.49 505.967C1266.49 453.008 1236.68 451.619 1189.91 422.203C1167 407.795 1142.22 386.463 1136.35 358.853C1132.43 340.383 1137.71 321.885 1147.9 306.345C1164.31 281.316 1189.89 272.289 1217.64 266.277Z"/>
  <path class="border" d="M1001.15 250.121C998.597 248.08 996.288 244.846 994.077 242.365C987.53 235.022 978.277 236.104 969.446 233.031L967.599 227.957L969.704 224.772C986.767 214.418 1051.34 220.338 1074.57 220.594C1081.41 220.391 1086.49 219.795 1092.12 224.274L1093.61 228.164C1091.27 232.502 1088.49 234.057 1083.83 235.461C1082.68 235.805 1081.53 236.076 1080.36 236.334C1071.65 238.953 1067.55 244.139 1063.35 252.022C1060.28 257.795 1058.6 262.664 1058.12 269.229C1055.36 306.604 1058.61 345.955 1058.89 383.5C1059.19 424.953 1055.37 510.162 1062.91 546.625C1069.21 553.496 1074.01 557.836 1083.67 558.254C1090.89 558.565 1097.4 555.697 1103.59 559.643C1103.92 564.412 1102.77 566.756 1100.28 570.762C1080.59 576.887 1019.87 575.738 996.312 575.871C988.027 577.193 975.933 580.901 968.501 577.098C967.562 574.115 966.048 570.391 965.857 567.293C965.112 555.277 982.903 558.711 990.384 555.127C995.171 552.832 999.007 548.639 1002.68 544.883C1004.69 528.051 1003.49 510.217 1003.43 493.266L1003.1 402.4C1003.01 363.084 1006.9 285.807 1001.15 250.121Z"/>
  <path class="border" d="M1804.7 270.961C1807.16 270.668 1809.21 271.395 1811.59 271.977C1813.76 276.041 1812.62 277.887 1811.7 282.141C1803.79 290.592 1796.98 291.225 1786.02 293.647C1776.62 337.377 1781.37 409.934 1781.43 456.461C1781.46 480.162 1779.35 505.44 1781.25 528.912C1781.65 533.905 1782.76 538.973 1785.15 543.412C1790.81 553.942 1800.19 555.383 1810.71 558.53C1815.31 559.901 1817.83 560.225 1820.15 564.639C1819.26 568.586 1817.85 570.738 1815.22 573.791C1798.49 575.098 1780.91 572.305 1764.1 571.639C1745.83 570.912 1727.68 572.114 1709.46 573.344L1704.52 573.219C1700.68 569.278 1700.23 568.502 1699.05 563.131C1704.2 547.789 1716.23 558.998 1725.09 549.498C1730.29 543.926 1731.99 534.912 1732.88 527.608C1735.89 502.936 1733.8 475.989 1733.74 451.071L1733.37 303.625C1724.08 295.879 1713.76 291.606 1703.09 286.137C1701.11 281.436 1699.68 278.18 1700.49 272.924C1717.54 267.789 1780.53 272.875 1804.7 270.961Z"/>
</svg>
