<svg width="2400" height="800" viewBox="0 0 2400 800" fill="none"
     xmlns="http://www.w3.org/2000/svg">
  <style>
    .border {
      fill: #000000;
    }
    .primary {
      fill: #FEBD52;
    }
    .secondary {
      fill: #F8D9A5;
    }
    @media (prefers-color-scheme: dark) {
      .border {
        fill: #000000;
      }
      .primary {
        fill: #FEBD52;
      }
      .secondary {
        fill: #F8D9A5;
      }
    }
  </style>
  <path class="border" d="M182.875 211.075C181.731 211.681 180.786 212.391 179.832 213.265C174.602 218.055 170.01 223.887 165.4 229.28C165.3 229.4 165.206 229.525 165.106 229.645C147.711 250.063 133.818 273.441 123.64 298.359C122.837 300.309 122.032 302.259 121.276 304.229C120.826 305.412 120.403 306.604 119.969 307.793C118.937 310.602 117.947 313.426 117.011 316.269C116.764 317.025 116.523 317.781 116.282 318.538C115.21 321.9 114.207 325.282 113.27 328.687C113.158 329.093 113.041 329.498 112.931 329.905C109.737 341.734 107.337 353.797 105.816 366.031C105.715 366.835 105.65 367.642 105.557 368.447C105.217 371.399 104.908 374.355 104.669 377.324C104.53 379.014 104.435 380.704 104.33 382.395C104.248 383.733 104.125 385.065 104.063 386.406C104.024 387.204 104.032 388 104 388.797C103.968 389.667 103.89 390.536 103.866 391.405C103.836 392.427 103.871 393.443 103.852 394.464C103.805 397.012 103.792 399.556 103.817 402.098C103.835 403.834 103.861 405.567 103.912 407.299C103.987 409.879 104.112 412.452 104.261 415.024C104.36 416.73 104.451 418.436 104.582 420.137C104.781 422.725 105.045 425.303 105.319 427.88C105.496 429.556 105.649 431.235 105.857 432.906C106.172 435.421 106.564 437.923 106.95 440.425C107.215 442.154 107.439 443.89 107.737 445.612C107.961 446.896 108.248 448.165 108.489 449.445C109.584 455.261 110.864 461.032 112.333 466.751C112.526 467.497 112.69 468.25 112.889 468.995C113.763 472.282 114.733 475.539 115.73 478.789C115.903 479.352 116.061 479.92 116.238 480.481C117.336 483.979 118.52 487.446 119.758 490.895C119.83 491.096 119.899 491.297 119.972 491.497C132.608 526.43 152.345 558.76 178.465 586.19C179.186 586.957 179.921 587.608 180.725 588.179C181.926 589.48 183.084 590.784 184.297 592.092C183.919 584.264 183.01 576.479 182.699 568.642C182.543 564.7 182.55 560.773 182.604 556.847C182.738 552.055 182.982 547.34 183.567 542.957C183.831 542.945 184.086 542.906 184.35 542.893C188.312 542.67 192.206 542.349 196.044 541.944C197.625 541.775 199.192 541.571 200.759 541.364C204.084 540.934 207.366 540.411 210.607 539.809C211.459 539.648 212.321 539.514 213.168 539.341C217.967 538.371 222.687 537.195 227.325 535.776C229.87 535.005 232.383 534.156 234.872 533.251C235.376 533.064 235.88 532.877 236.383 532.683C254.95 525.686 271.866 514.857 286.283 499.039C303.757 479.869 316.465 453.503 320.333 427.626C320.495 426.785 320.731 425.975 320.881 425.129C321.47 425.064 322.074 425.064 322.665 425.01L370.902 424.877L419.139 425.01C419.73 425.064 420.333 425.064 420.922 425.129C421.072 425.975 421.309 426.785 421.47 427.626C425.338 453.503 438.047 479.869 455.52 499.039C469.938 514.857 486.854 525.686 505.421 532.683C505.923 532.877 506.428 533.064 506.932 533.251C509.42 534.156 511.933 535.005 514.479 535.776C519.116 537.195 523.837 538.371 528.636 539.341C529.483 539.514 530.344 539.648 531.196 539.809C534.437 540.411 537.719 540.934 541.044 541.364C542.611 541.571 544.178 541.775 545.759 541.944C549.597 542.349 553.491 542.67 557.453 542.893C557.717 542.906 557.972 542.945 558.236 542.957C558.821 547.34 559.065 552.055 559.199 556.847C559.254 560.773 559.261 564.7 559.104 568.642C558.793 576.479 557.884 584.264 557.507 592.092C558.719 590.784 559.877 589.48 561.079 588.179C561.883 587.608 562.617 586.957 563.339 586.19C589.459 558.76 609.196 526.43 621.832 491.497C621.904 491.297 621.973 491.096 622.045 490.895C623.284 487.446 624.468 483.979 625.566 480.481C625.743 479.92 625.9 479.352 626.074 478.789C627.071 475.539 628.04 472.282 628.915 468.995C629.114 468.25 629.278 467.497 629.47 466.751C630.939 461.032 632.22 455.261 633.314 449.445C633.556 448.165 633.843 446.896 634.066 445.612C634.364 443.89 634.589 442.154 634.854 440.425C635.239 437.923 635.631 435.421 635.946 432.906C636.155 431.235 636.307 429.556 636.485 427.88C636.759 425.303 637.022 422.725 637.222 420.137C637.353 418.436 637.444 416.73 637.542 415.024C637.691 412.452 637.816 409.879 637.892 407.299C637.942 405.567 637.969 403.834 637.986 402.098C638.011 399.556 637.998 397.012 637.951 394.464C637.933 393.443 637.968 392.427 637.937 391.405C637.914 390.536 637.836 389.667 637.803 388.797C637.772 388 637.779 387.204 637.741 386.406C637.679 385.065 637.556 383.733 637.474 382.395C637.368 380.704 637.273 379.014 637.135 377.324C636.895 374.355 636.586 371.399 636.247 368.447C636.153 367.642 636.088 366.835 635.987 366.031C634.465 353.786 632.063 341.712 628.865 329.872C628.762 329.491 628.652 329.111 628.547 328.73C627.607 325.311 626.598 321.914 625.521 318.538C625.281 317.781 625.039 317.025 624.792 316.269C623.856 313.426 622.866 310.602 621.835 307.793C621.401 306.604 620.978 305.412 620.527 304.229C619.771 302.259 618.966 300.309 618.164 298.359C607.985 273.441 594.092 250.064 576.698 229.647C576.597 229.526 576.504 229.401 576.403 229.28C571.794 223.887 567.201 218.055 561.972 213.265C561.018 212.391 560.073 211.681 558.929 211.075C559.163 213.503 559.244 216.213 559.347 218.882C559.083 227.478 558.857 236.115 558.952 244.735C558.734 249.057 558.57 253.612 558.312 257.436C530.874 257.806 502.068 264.555 479.351 280.335C467.975 288.274 458.008 297.889 449.613 308.713C449.401 308.973 449.19 309.235 448.98 309.494C448.413 310.237 447.856 310.984 447.305 311.737C432.538 330.875 425.996 350.243 420.254 375.76C420.122 375.768 419.987 375.764 419.854 375.771C403.979 375.767 388.089 375.165 372.224 375.368L371.583 375.36C371.356 375.357 371.129 375.367 370.902 375.364C370.676 375.367 370.449 375.357 370.222 375.36L369.581 375.368C353.716 375.165 337.824 375.767 321.949 375.771C321.817 375.764 321.682 375.768 321.549 375.76C315.81 350.253 309.27 330.891 294.515 311.76C293.954 310.992 293.386 310.231 292.808 309.475C292.609 309.228 292.407 308.978 292.205 308.731C283.808 297.9 273.835 288.278 262.452 280.335C239.736 264.555 210.929 257.806 183.491 257.436C183.233 253.612 183.07 249.057 182.852 244.735C182.946 236.115 182.72 227.478 182.456 218.882C182.559 216.213 182.641 213.503 182.875 211.075ZM188.082 286.228C190.267 286.308 192.526 286.273 194.697 286.49C224.816 289.822 250.183 302.406 269.383 326.245C279.404 338.689 286.459 352.646 289.869 368.052C290.233 369.839 290.557 371.64 290.87 373.444C290.964 374.023 291.096 374.588 291.18 375.171C288.261 374.894 285.372 374.427 282.488 373.94C280.681 373.609 278.883 373.253 277.091 372.882C275.25 372.484 273.416 372.06 271.597 371.576C270.479 371.297 269.364 370.994 268.252 370.678C265.186 369.768 262.149 368.763 259.162 367.612C258.947 367.528 258.727 367.454 258.512 367.368C256.018 366.39 253.586 365.248 251.158 364.104C249.955 363.52 248.719 363.002 247.538 362.375C247.519 362.365 247.5 362.354 247.48 362.343C230.683 353.419 216.169 340.278 205.248 324.681C204.279 323.304 203.452 321.841 202.549 320.423C199.757 315.9 197.182 311.228 195.017 306.318C193.213 302.317 191.716 298.209 190.295 294.074C189.49 291.48 188.694 288.882 188.082 286.228ZM553.721 286.228C553.109 288.882 552.314 291.48 551.509 294.074C550.088 298.209 548.59 302.317 546.786 306.318C544.621 311.228 542.046 315.9 539.254 320.423C538.351 321.841 537.524 323.304 536.555 324.681C525.635 340.278 511.121 353.419 494.323 362.343C494.307 362.352 494.292 362.362 494.276 362.371C494.272 362.372 494.269 362.373 494.265 362.375C493.084 363.002 491.849 363.52 490.646 364.104C488.217 365.248 485.785 366.39 483.291 367.368C483.076 367.454 482.857 367.528 482.641 367.612C479.654 368.763 476.617 369.768 473.551 370.678C472.44 370.994 471.325 371.297 470.207 371.576C468.387 372.06 466.553 372.484 464.712 372.882C462.921 373.253 461.123 373.609 459.315 373.94C456.431 374.427 453.543 374.894 450.624 375.171C450.708 374.588 450.839 374.023 450.933 373.444C451.246 371.64 451.57 369.839 451.934 368.052C455.345 352.646 462.399 338.689 472.421 326.245C491.62 302.406 516.988 289.822 547.106 286.49C549.278 286.273 551.537 286.308 553.721 286.228ZM290.534 425.269L290.623 425.286C290.827 425.678 290.848 425.665 290.953 426.175C291.036 426.581 291.034 427.047 291.003 427.527C284.143 456.213 268.58 481.127 243.286 497.158C230.815 505.037 216.79 510.125 202.168 512.076C197.712 512.674 193.032 512.536 188.648 513.343C188.667 512.88 188.769 512.423 188.835 511.963C189.471 509.621 190.217 507.305 190.994 504.998C191.406 504.021 191.809 503.018 192.193 502.074C197.701 488.519 204.048 475.949 213.645 464.759C231.789 443.607 260.82 427.908 288.894 425.379C289.442 425.346 289.983 425.293 290.534 425.269ZM451.269 425.269C451.82 425.293 452.361 425.346 452.909 425.379C480.984 427.908 510.015 443.607 528.158 464.759C537.756 475.949 544.104 488.519 549.612 502.074C549.994 503.016 550.396 504.016 550.807 504.99C551.584 507.3 552.332 509.618 552.969 511.963C553.034 512.423 553.136 512.88 553.155 513.343C548.771 512.536 544.091 512.674 539.636 512.076C525.014 510.125 510.988 505.037 498.518 497.158C473.223 481.127 457.66 456.213 450.801 427.527C450.77 427.047 450.767 426.581 450.851 426.175C450.956 425.665 450.977 425.678 451.18 425.286L451.269 425.269Z"/>
  <path class="border" d="M370.57 445.904C372.22 447.778 374.995 461.511 375.963 464.812C378.07 471.768 380.573 478.597 383.459 485.267C390.911 502.614 401.507 519.686 414.016 533.834C450.289 574.861 496.739 595.078 550.955 598.413C540.555 608.396 529.355 616.617 517.296 624.481C472.918 653.418 423.335 666.805 370.608 667.748C316.861 666.579 266.343 652.032 221.479 622C210.599 614.718 199.636 606.654 190.383 597.364C225.842 597.382 260.509 586.878 289.995 567.182C333.35 538.711 360.131 496.338 370.57 445.904ZM265.211 611.926C271.702 615.161 278.27 618.241 284.906 621.166C305.119 629.321 326.323 635.061 348.088 636.896C350.286 637.081 354.252 637.95 356.256 637.408C356.473 637.103 356.763 636.838 356.908 636.492C357.288 635.582 356.82 633.363 356.884 632.301C358.312 608.684 358.109 584.475 357.227 560.813C357.123 558.044 357.522 553.482 356.687 550.885C356.524 550.382 356.448 550.325 356.177 549.954C349.932 555.724 344.351 562.171 338.159 568.01C324.231 580.979 308.529 591.903 291.525 600.45C282.934 604.772 273.787 607.735 265.211 611.926ZM384.84 637.431C391.865 636.642 398.912 636.402 405.929 635.441C425.533 632.755 444.179 627.272 462.705 620.436C468.38 618.2 474.601 616.164 479.819 612.968C452.181 603.246 425.413 590.029 404.007 569.628C401.037 566.763 398.163 563.8 395.389 560.744C392.369 557.384 388.588 551.643 384.752 549.395C384.328 570.621 384.673 591.918 384.703 613.149C384.714 621.143 385.266 629.477 384.84 637.431Z"/>
  <path class="border" d="M369.526 132.235L377.731 132.381C387.297 132.469 396.944 133.634 406.408 134.977C447.653 140.831 485.594 155.858 520.247 178.851C530.758 185.825 540.771 192.875 549.632 201.916C505.006 201.875 457.09 224.281 425.28 254.913C401.86 277.214 384.724 305.288 375.595 336.313C373.991 341.816 371.792 348.251 371.679 353.991L371.664 354.403L371.385 354.41C368.18 348.359 366.868 338.135 364.601 331.319C356.669 307.288 344.008 285.088 327.363 266.024C291.458 224.94 246.484 205.576 192.585 201.983C192.967 201.514 193.34 201.067 193.759 200.629C200.791 193.269 209.514 187.241 217.755 181.333C262.298 149.407 314.79 133.112 369.526 132.235ZM265.136 187.281C280.562 194.213 296.508 201.27 310.622 210.667C327.272 220.073 345.925 237.633 357.957 252.522C358.704 228.139 358.749 203.546 358.504 179.152C358.445 173.326 358.101 167.508 358.062 161.685C356.765 161.735 355.409 161.707 354.124 161.878C325.391 163.76 289.697 171.774 265.136 187.281ZM384.354 252.308C398.111 235.722 414.362 220.727 432.927 209.625C439.058 206.01 445.102 202.199 451.415 198.908C459.576 194.655 468.115 191.152 476.579 187.56C453.273 174.587 428.658 166.174 402.16 162.721C396.217 161.947 390.18 162.136 384.279 161.412C384.43 177.628 383.916 193.824 383.979 210.048C384.002 216.195 384.482 222.281 384.583 228.407C384.715 236.323 384.545 244.389 384.354 252.308Z"/>
  <path class="primary" d="M148.797 313.684C151.759 306.264 155.229 299.177 158.835 292.05C160.615 296.465 162.124 301.031 163.738 305.513L165.924 311.242C180.217 342.908 201.848 370.362 233.132 386.676L168.421 386.819C156.389 386.879 144.31 387.519 132.291 386.789C135.132 359.444 138.904 339.377 148.797 313.684Z"/>
  <path class="primary" d="M582.288 292.401C582.629 292.601 582.732 292.637 583.043 292.963C586.175 296.256 588.107 302.483 589.9 306.641C600.978 332.355 607.949 358.65 608.92 386.712C585.57 386.633 562.219 386.76 538.871 387.092C529.852 387.151 520.784 387.227 511.771 386.856C538.006 371.404 558.842 348.245 571.445 320.53C575.651 311.413 578.807 301.809 582.288 292.401Z"/>
  <path class="secondary" d="M154.317 413.092C147.096 412.888 139.851 412.944 132.626 412.888C134.165 447.379 141.93 476.603 159.61 506.329C164.167 494.165 168.464 481.874 174.728 470.453C187.616 446.074 207.854 426.772 231.75 413.392C206.023 412.432 180.085 413.366 154.317 413.092Z"/>
  <path class="secondary" d="M587.684 413.092C594.905 412.888 602.149 412.944 609.374 412.888C607.835 447.379 600.07 476.603 582.391 506.329C577.833 494.165 573.536 481.874 567.273 470.453C554.384 446.074 534.146 426.772 510.25 413.392C535.977 412.432 561.915 413.366 587.684 413.092Z"/>
  <path class="border" d="M1750.47 284.237C1790.41 279.189 1829.97 296.096 1853.93 328.454C1877.87 360.811 1882.49 403.579 1866 440.307C1849.51 477.035 1814.49 502.001 1774.39 505.601C1713.93 511.032 1660.26 467.023 1653.74 406.665C1647.2 346.307 1690.24 291.849 1750.47 284.237ZM1800.74 476.046C1813.01 470.7 1823.18 454.697 1827.89 442.808C1838.66 415.638 1839.43 379.46 1827.59 352.531C1822.17 340.189 1810.84 322.545 1797.68 317.541C1794.45 316.312 1790.91 316.033 1787.68 317.486C1778.42 321.664 1776.39 339.121 1766.59 338.041C1763.53 335.052 1761.47 332.519 1761.69 328.012C1762.11 319.602 1769.12 311.799 1775.03 306.545C1775.88 305.798 1776.18 305.108 1776.48 304.047C1768.41 303.748 1760.55 303.435 1752.51 304.375C1732.07 311.362 1717.24 321.951 1707.5 341.914C1693.72 370.133 1693.7 408.26 1703.93 437.591C1710.1 455.307 1721.17 470.732 1738.44 478.942C1753.55 486.122 1774.85 488.806 1790.85 483.117C1793.98 482.003 1798.81 479.86 1800.45 476.818C1800.59 476.577 1800.65 476.303 1800.74 476.046Z"/>
  <path class="border" d="M1199.26 377.605C1200.11 358.055 1202.48 325.299 1199.02 306.803C1196.68 294.239 1189.42 293.5 1180.21 286.755C1177.57 284.822 1175.98 283.403 1175.43 280.126L1177.32 278.34C1188.57 277.627 1254.04 276.271 1259.53 279.474C1259.75 281.263 1260 283.084 1260.06 284.886C1260.27 292.087 1244.82 292.642 1240.31 298.115C1235.77 303.63 1236.17 471.333 1239.14 490.283L1240.49 488.967L1239.77 491.965C1245.76 497.187 1253.98 495.201 1259.08 501.766C1259.63 505.853 1260.18 506.317 1257.81 509.595C1251.59 511.929 1243.57 510.168 1237.06 509.509C1221.21 508.626 1197.53 512.592 1183.83 510.27C1179.68 509.567 1177.97 508.799 1175.6 505.398L1177.03 501.2C1181.58 497.856 1189.59 497.575 1195.13 496.707C1203.09 466.099 1199.4 432 1198.67 400.567L1086.1 399.612C1086.67 418.605 1087.43 437.621 1087.71 456.621C1087.83 465.353 1086.94 474.527 1087.72 483.186C1088.88 495.928 1099.36 493.448 1106.27 500.276C1108.93 502.902 1108.23 505.055 1108.26 508.549C1107.63 509.6 1106.91 511.457 1105.76 511.88C1100.07 513.964 1089.56 510.214 1083.15 509.499C1069.42 507.968 1034.31 513.209 1025.92 509.345C1025.5 508.41 1024.98 507.412 1024.91 506.364C1024.14 495.3 1039.2 499.033 1045.32 492.519C1049.02 471.319 1049.55 327.992 1045.87 306.449C1044.11 296.182 1035.12 294.807 1028.18 289.183C1024.31 286.037 1024.42 282.429 1023.71 277.904C1043.21 279.081 1080.58 276.08 1096.68 279.511C1101.25 280.486 1103.4 281.673 1105.89 285.597L1104.86 289.579C1101.23 294.867 1094.02 297.123 1088.33 299.668C1087.1 324.856 1088.11 350.45 1088.23 375.682C1125.19 377.807 1162.26 377.479 1199.26 377.605Z"/>
  <path class="border" d="M2200.32 235.107C2212.55 233.577 2224.82 233.553 2236.82 236.71C2246.91 239.368 2257.29 244.533 2262.59 253.963C2265.72 259.542 2267.34 267.967 2265.39 274.2C2263.91 278.902 2261.07 281.335 2256.82 283.433C2251.97 285.835 2245.37 288.656 2239.95 286.423C2232.95 283.537 2229.76 271.713 2226.76 265.298C2224.34 260.108 2220.98 255.913 2215.36 253.995C2186.51 244.142 2171 275.01 2149.62 285.877C2156.94 292.374 2162.12 313.042 2166.02 322.867C2184.48 369.426 2221.18 474.074 2254.27 507.119C2268.13 520.962 2277.89 519.834 2291.5 529.556L2290.14 532.151C2281.82 536.679 2271.35 537.307 2261.98 537.14C2226.11 536.495 2218.42 514.909 2197.08 493.502L2196.18 492.603C2196.22 492.276 2196.27 491.949 2196.3 491.621C2196.36 490.948 2170.17 432.181 2167.66 429.313C2143.79 429.478 2119.92 429.873 2096.05 430.495C2093.81 446.141 2077.02 467.396 2079.85 482.504C2080.78 487.468 2097.26 489.488 2101.94 492.435C2103.94 496.153 2103.73 496.45 2102.97 500.654C2100.06 502.336 2097.06 502.725 2093.78 503.017C2083.04 503.972 2022.4 504.594 2017.4 500.322C2022.96 491.916 2034.16 489.85 2043.11 486.937C2049.75 480.438 2057.38 448.662 2062.02 437.818C2070.2 418.674 2079.35 399.965 2087.59 380.851C2099.79 352.561 2111.04 323.799 2125.81 296.702C2142.93 265.295 2165.7 245.289 2200.32 235.107ZM2100.16 406.982L2128.52 407.01C2138.74 406.848 2149.12 406.997 2159.31 406.207C2160.29 399.355 2140.81 351.091 2135.94 341.646L2132.13 340.515C2132.31 348.641 2109.71 396.886 2103.51 404.166C2102.56 405.282 2101.38 406.175 2100.16 406.982Z"/>
  <path class="border" d="M1417.84 295.082C1410.94 292.713 1402.44 294.011 1396.96 288.641C1395.5 285.392 1394.97 284.603 1395.42 281.127C1397.76 278.749 1400.22 277.989 1403.42 277.512C1412.17 276.206 1444.21 275.732 1451.11 280.69C1479.74 322.333 1512.55 362.297 1543.81 402.075C1554.08 415.141 1565.89 427.655 1575.31 441.287C1577.69 444.724 1579.18 447.425 1579.23 451.684C1582 447.738 1583.16 444.163 1583.69 439.375C1585.33 424.776 1584.24 315.565 1581.95 303.573C1581.59 301.622 1580.99 299.737 1580.27 297.886C1577.69 290.143 1563.6 283.666 1556.53 280.174C1555.41 279.626 1554.26 279.117 1553.1 278.645C1579.53 278.813 1606.76 276.867 1633.03 278.365C1632.93 278.615 1632.84 278.868 1632.73 279.114C1628.56 288.214 1613.41 288.172 1610.22 295.336C1604.06 309.123 1605.08 471.927 1610.5 488.677C1613.85 498.948 1624.4 506.057 1631.29 513.93C1638.65 513.862 1645.32 513.525 1652.23 516.5L1651.78 516.628L1655.88 519.315C1652.19 524.826 1646.36 526.292 1639.99 527.573C1623.15 530.963 1609.01 528.891 1594.8 519.264C1568.37 501.371 1522.59 435.217 1500.5 406.841C1482.84 384.169 1464.32 362.356 1447.54 339.003C1447.27 368.652 1447.2 398.303 1447.32 427.951C1447.34 444.002 1446.06 461.244 1448.11 477.14C1448.72 481.927 1449.49 486.915 1452.89 490.613C1460.28 498.648 1479.72 497.432 1479.68 509.063C1479.68 510.891 1479.43 511.926 1478.77 513.591C1465.71 514.255 1452.19 509.771 1438.81 509.64C1427.61 509.53 1409.58 513.12 1399.26 509.357C1399.06 505.333 1398.95 504.69 1400.99 501.267C1406.17 498.7 1420.09 496.84 1422.26 491.518C1425.58 483.379 1424.95 329.593 1425.16 308.436L1417.84 295.082Z"/>
  <path class="border" d="M1859.38 263.719C1866.36 262.875 1874.26 262.398 1881.24 263.35C1903.85 266.428 1923.11 282.747 1936.31 300.543C1942.46 308.812 1947.53 317.812 1951.96 327.1C1961.28 346.685 1967.77 367.296 1975.7 387.436C1980.82 400.405 1987.65 413.223 1991.4 426.645C1992.34 430.065 1992.48 433.116 1991.97 436.606C1992.16 436.432 1992.37 436.263 1992.56 436.079C1992.87 435.775 1993.17 435.451 1993.49 435.144C1994.45 434.192 1995.52 433.248 1996.23 432.074C2003.47 420.269 2015.78 382.088 2021.95 366.873C2025.76 357.517 2045.19 319.389 2045.37 311.774C2045.4 310.403 2044.7 308.406 2044.43 307.012C2038.6 307.855 2032.46 309.063 2026.57 309.257C2022.48 309.393 2020.28 307.958 2017.48 305.225L2018.06 301.892C2022.97 296.268 2086.07 268.495 2094.52 267.854C2095.29 268.908 2095.93 269.254 2095.83 270.611C2095.07 280.816 2074.55 316.994 2066.73 323.495C2066.94 324.566 2067.13 325.475 2066.9 326.567C2065.42 333.362 2041.8 383.29 2037.13 394.355C2021.81 430.559 2009.3 469.162 1992.22 504.466C1990.19 508.657 1987.41 511.255 1983.82 514.139C1984.54 501.991 1916 343.068 1904.67 323.697C1894.81 306.795 1879.62 284.415 1859.44 279.274L1858.56 279.06C1849.53 276.791 1838.52 282.939 1829.14 283.683L1827.92 281.402L1829.28 277.773C1836.94 269.953 1849.21 266.891 1859.38 263.719Z"/>
  <path class="border" d="M909.8 273.77C924.25 273.094 937.878 272.984 951.848 277.389C966.92 282.143 982.75 291.821 990.029 306.387C993.628 313.588 994.715 321.977 992.039 329.668C990.323 334.602 987.889 336.885 983.316 339.106C969.902 336.063 967.738 307.125 939.706 295.188C927.985 290.196 915.225 289.887 903.401 294.828C894.167 298.688 882.435 307.211 878.618 316.859C866.794 346.749 928.698 368.529 947.556 379.701C967.911 391.76 994.137 410.356 1003.92 432.799C1009.48 445.566 1008.46 458.286 1003.24 470.956C994.616 491.918 977.333 502.783 957.426 511.22C955.096 511.916 952.759 512.583 950.413 513.22C929.555 518.867 905.975 516.968 887.149 506.111C874.581 498.863 855.798 483.774 852.003 469.443C852.681 465.073 852.835 464.948 856.116 461.962C867.28 461.06 886.85 485.554 906.269 491.703C920.092 496.079 938.114 496.463 951.134 489.317C963.333 482.621 966.839 470.985 970.593 458.571C947.463 417.739 924.479 416.669 888.42 393.989C870.757 382.88 851.656 366.433 847.129 345.146C844.101 330.905 848.177 316.643 856.033 304.663C868.687 285.365 888.409 278.405 909.8 273.77Z"/>
  <path class="border" d="M742.888 261.313C740.918 259.74 739.138 257.246 737.434 255.334C732.386 249.672 725.251 250.506 718.443 248.137L717.019 244.225L718.642 241.769C731.797 233.786 781.58 238.351 799.495 238.548C804.768 238.391 808.682 237.932 813.026 241.385L814.171 244.385C812.371 247.729 810.223 248.928 806.633 250.01C805.75 250.275 804.857 250.485 803.958 250.684C797.245 252.703 794.078 256.701 790.847 262.779C788.479 267.23 787.183 270.984 786.811 276.045C784.686 304.861 787.187 335.201 787.401 364.149C787.636 396.109 784.688 461.805 790.505 489.918C795.36 495.216 799.058 498.562 806.511 498.884C812.078 499.123 817.092 496.913 821.864 499.955C822.122 503.632 821.236 505.439 819.316 508.527C804.131 513.25 757.32 512.364 739.157 512.467C732.769 513.486 723.444 516.344 717.715 513.412C716.99 511.113 715.823 508.241 715.676 505.853C715.102 496.589 728.819 499.236 734.586 496.473C738.277 494.704 741.235 491.47 744.064 488.575C745.62 475.597 744.694 461.847 744.644 448.778L744.392 378.721C744.322 348.408 747.321 288.827 742.888 261.313Z"/>
  <path class="border" d="M1362.42 277.381C1364.32 277.155 1365.9 277.716 1367.74 278.164C1369.41 281.298 1368.53 282.721 1367.82 286.001C1361.72 292.517 1356.47 293.005 1348.02 294.872C1340.77 328.588 1344.44 384.529 1344.48 420.402C1344.5 438.675 1342.88 458.164 1344.34 476.262C1344.65 480.111 1345.51 484.018 1347.35 487.441C1351.71 495.559 1358.95 496.671 1367.06 499.097C1370.6 500.154 1372.55 500.404 1374.34 503.807C1373.65 506.85 1372.56 508.51 1370.54 510.863C1357.63 511.871 1344.08 509.717 1331.12 509.204C1317.03 508.644 1303.04 509.57 1288.99 510.519L1285.19 510.422C1282.22 507.383 1281.88 506.786 1280.96 502.644C1284.94 490.816 1294.21 499.458 1301.04 492.133C1305.05 487.837 1306.37 480.888 1307.05 475.256C1309.37 456.234 1307.76 435.457 1307.71 416.246L1307.43 302.565C1300.27 296.593 1292.31 293.298 1284.08 289.082C1282.55 285.457 1281.45 282.947 1282.08 278.895C1295.22 274.936 1343.78 278.857 1362.42 277.381Z"/>
</svg>
