<svg width="128" height="128" viewBox="0 0 128 128" fill="none" xmlns="http://www.w3.org/2000/svg">
  <rect width="128" height="128" rx="64" fill="#0F4C81" />
  <path d="M44 38H84C89.5228 38 94 42.4772 94 48V80C94 85.5229 89.5228 90 84 90H44C38.4772 90 34 85.5229 34 80V48C34 42.4772 38.4772 38 44 38Z" fill="#0F4C81" stroke="#D4AF37" stroke-width="3" />
  <path d="M64 37V91" stroke="#D4AF37" stroke-width="3" stroke-linecap="round" />
  <path d="M34 64H94" stroke="#D4AF37" stroke-width="3" stroke-linecap="round" />
  <circle cx="64" cy="64" r="15" fill="#0F4C81" stroke="#D4AF37" stroke-width="3" />
  <path d="M64 49L68.1404 58.7557H78.5595L70.2096 64.7885L74.3499 74.5443L64 68.5115L53.6501 74.5443L57.7904 64.7885L49.4405 58.7557H59.8596L64 49Z" fill="#D4AF37" />
</svg>
