<svg xmlns="http://www.w3.org/2000/svg" version="1.1" xmlns:xlink="http://www.w3.org/1999/xlink" width="1000" height="1000"><g clip-path="url(#SvgjsClipPath1158)"><rect width="1000" height="1000" fill="#ffffff"></rect><g transform="matrix(0.9765625,0,0,0.9765625,0,0)"><svg xmlns="http://www.w3.org/2000/svg" version="1.1" xmlns:xlink="http://www.w3.org/1999/xlink" width="1024" height="1024"><svg xmlns="http://www.w3.org/2000/svg" xmlns:xlink="http://www.w3.org/1999/xlink" width="1024" height="1024">
  <style>
    .border {
      fill: #000000;
    }
    .primary {
      fill: #FEBD52;
    }
    .secondary {
      fill: #F8D9A5;
    }
  </style>
  <path class="border" d="M 271.19922 270.17578 C 269.73522 270.95178 268.52569 271.85952 267.30469 272.97852 C 260.61069 279.10952 254.73203 286.57552 248.83203 293.47852 C 248.7032 293.63197 248.58362 293.79165 248.45508 293.94531 C 226.19044 320.07985 208.40736 350.0039 195.37891 381.89844 C 194.35118 384.39567 193.32087 386.89098 192.35352 389.41211 C 191.77654 390.92642 191.23508 392.45223 190.67969 393.97461 C 189.35918 397.57036 188.09199 401.18441 186.89453 404.82422 C 186.57811 405.79106 186.26874 406.75895 185.96094 407.72852 C 184.58848 412.03111 183.30472 416.36091 182.10547 420.71875 C 181.96263 421.23897 181.81225 421.75649 181.67188 422.27734 C 177.58326 437.41851 174.51103 452.85958 172.56445 468.51953 C 172.435 469.54887 172.35233 470.58118 172.23242 471.61133 C 171.79809 475.3899 171.40239 479.17452 171.0957 482.97461 C 170.91835 485.1377 170.797 487.30041 170.66211 489.46484 C 170.55709 491.17784 170.39924 492.88305 170.32031 494.59961 C 170.27086 495.62101 170.28058 496.63918 170.24023 497.66016 C 170.19861 498.77292 170.09865 499.88541 170.06836 500.99805 C 170.02983 502.3062 170.0745 503.60707 170.05078 504.91406 C 169.99059 508.17515 169.97369 511.43133 170.00586 514.68555 C 170.02811 516.90686 170.06217 519.1251 170.12695 521.3418 C 170.22338 524.64413 170.38334 527.93844 170.57422 531.23047 C 170.70052 533.41415 170.81703 535.59759 170.98438 537.77539 C 171.23973 541.08795 171.57732 544.38675 171.92773 547.68555 C 172.15476 549.83106 172.35046 551.98071 172.61719 554.11914 C 173.02045 557.33899 173.52222 560.54059 174.01562 563.74414 C 174.35493 565.95677 174.64171 568.17928 175.02344 570.38281 C 175.30936 572.02597 175.67673 573.65094 175.98633 575.28906 C 177.38705 582.73416 179.02576 590.12079 180.90625 597.44141 C 181.15266 598.39598 181.36263 599.36016 181.61719 600.3125 C 182.73649 604.52063 183.97798 608.68982 185.25391 612.84961 C 185.47605 613.57018 185.67743 614.29653 185.9043 615.01562 C 187.30971 619.49322 188.82487 623.93055 190.41016 628.3457 C 190.5026 628.60181 190.59054 628.85934 190.68359 629.11523 C 206.85762 673.82992 232.12099 715.21194 265.55469 750.32227 C 266.47786 751.30394 267.41865 752.13755 268.44727 752.86914 C 269.98546 754.53352 271.46794 756.20364 273.01953 757.87695 C 272.53653 747.85795 271.37261 737.89233 270.97461 727.86133 C 270.7746 722.81604 270.7835 717.78958 270.85352 712.76367 C 271.02479 706.62945 271.33672 700.59524 272.08594 694.98438 C 272.42379 694.96868 272.75043 694.91923 273.08789 694.90234 C 278.15944 694.61773 283.14361 694.20646 288.05664 693.6875 C 290.08027 693.4712 292.08561 693.21006 294.0918 692.94531 C 298.34741 692.39535 302.54886 691.72524 306.69727 690.95508 C 307.78782 690.74912 308.89027 690.57746 309.97461 690.35547 C 316.11719 689.11502 322.15913 687.60914 328.0957 685.79297 C 331.35384 684.80573 334.57027 683.71956 337.75586 682.56055 C 338.40063 682.32119 339.04677 682.08152 339.68945 681.83398 C 363.45573 672.87751 385.1081 659.01645 403.5625 638.76953 C 425.92826 614.23182 442.19527 580.48357 447.14648 547.36133 C 447.35331 546.28422 447.65576 545.24716 447.84766 544.16406 C 448.60167 544.08115 449.37392 544.08173 450.13086 544.01172 L 511.875 543.8418 L 573.61719 544.01172 C 574.37412 544.08173 575.14637 544.08115 575.90039 544.16406 C 576.09229 545.24716 576.39474 546.28422 576.60156 547.36133 C 581.55278 580.48357 597.81979 614.23182 620.18555 638.76953 C 638.63995 659.01645 660.29232 672.87751 684.05859 681.83398 C 684.70127 682.08152 685.34742 682.32119 685.99219 682.56055 C 689.17778 683.71956 692.39421 684.80573 695.65234 685.79297 C 701.58892 687.60914 707.63086 689.11502 713.77344 690.35547 C 714.85777 690.57746 715.96023 690.74912 717.05078 690.95508 C 721.19919 691.72524 725.40064 692.39535 729.65625 692.94531 C 731.66244 693.21006 733.66778 693.4712 735.69141 693.6875 C 740.60444 694.20646 745.5886 694.61773 750.66016 694.90234 C 750.99762 694.91923 751.32426 694.96868 751.66211 694.98438 C 752.41132 700.59524 752.72325 706.62945 752.89453 712.76367 C 752.96455 717.78958 752.97345 722.81604 752.77344 727.86133 C 752.37544 737.89233 751.21152 747.85795 750.72852 757.87695 C 752.28011 756.20364 753.76258 754.53352 755.30078 752.86914 C 756.32955 752.1375 757.27007 751.30405 758.19336 750.32227 C 791.62706 715.21194 816.89042 673.82992 833.06445 629.11523 C 833.15751 628.85934 833.24545 628.60181 833.33789 628.3457 C 834.92318 623.93055 836.43834 619.49322 837.84375 615.01562 C 838.07062 614.29653 838.27199 613.57018 838.49414 612.84961 C 839.77007 608.68982 841.01156 604.52063 842.13086 600.3125 C 842.38542 599.36016 842.59539 598.39598 842.8418 597.44141 C 844.72229 590.12079 846.36099 582.73416 847.76172 575.28906 C 848.07132 573.65094 848.43868 572.02597 848.72461 570.38281 C 849.10634 568.17928 849.39311 565.95677 849.73242 563.74414 C 850.22582 560.54059 850.7276 557.33899 851.13086 554.11914 C 851.39759 551.98071 851.59328 549.83106 851.82031 547.68555 C 852.17073 544.38675 852.50832 541.08795 852.76367 537.77539 C 852.93102 535.59759 853.04753 533.41415 853.17383 531.23047 C 853.3647 527.93844 853.52466 524.64413 853.62109 521.3418 C 853.68587 519.1251 853.71993 516.90686 853.74219 514.68555 C 853.77435 511.43133 853.75746 508.17515 853.69727 504.91406 C 853.67355 503.60707 853.71822 502.3062 853.67969 500.99805 C 853.6494 499.88541 853.54944 498.77292 853.50781 497.66016 C 853.46747 496.63918 853.47719 495.62101 853.42773 494.59961 C 853.34881 492.88305 853.19096 491.17784 853.08594 489.46484 C 852.95105 487.30041 852.8297 485.1377 852.65234 482.97461 C 852.34566 479.17452 851.94995 475.3899 851.51562 471.61133 C 851.39572 470.58118 851.31305 469.54887 851.18359 468.51953 C 849.23526 452.84544 846.16061 437.3906 842.06641 422.23633 C 841.93461 421.74754 841.79412 421.26167 841.66016 420.77344 C 840.45659 416.39702 839.16534 412.04923 837.78711 407.72852 C 837.47931 406.75895 837.16994 405.79106 836.85352 404.82422 C 835.65605 401.18441 834.38887 397.57036 833.06836 393.97461 C 832.51297 392.45223 831.97151 390.92642 831.39453 389.41211 C 830.42718 386.89098 829.39687 384.39567 828.36914 381.89844 C 815.34087 350.00435 797.55717 320.08154 775.29297 293.94727 C 775.16411 293.79323 775.04516 293.63235 774.91602 293.47852 C 769.01602 286.57552 763.13736 279.10952 756.44336 272.97852 C 755.22236 271.85952 754.01283 270.95178 752.54883 270.17578 C 752.8479 273.28301 752.95221 276.75221 753.08398 280.16797 C 752.74615 291.17138 752.45731 302.22704 752.57812 313.25977 C 752.29926 318.79309 752.08995 324.62277 751.75977 329.51758 C 716.63853 329.99176 679.76635 338.63002 650.68945 358.82812 C 636.12781 368.99013 623.36967 381.29707 612.625 395.15234 C 612.35284 395.4847 612.08252 395.82001 611.81445 396.15234 C 611.08882 397.10239 610.37593 398.05872 609.66992 399.02344 C 590.76869 423.51983 582.3942 448.31012 575.04492 480.97266 C 574.87581 480.98312 574.70262 480.97697 574.5332 480.98633 C 554.21328 480.9811 533.87375 480.2103 513.56641 480.4707 L 512.74609 480.46094 C 512.45594 480.45586 512.16517 480.46945 511.875 480.46484 C 511.58481 480.46945 511.29408 480.45586 511.00391 480.46094 L 510.18359 480.4707 C 489.8762 480.2103 469.53482 480.9811 449.21484 480.98633 C 449.04542 480.97697 448.87224 480.98312 448.70312 480.97266 C 441.35676 448.32303 432.98493 423.53967 414.09961 399.05273 C 413.38032 398.06946 412.65372 397.09499 411.91406 396.12695 C 411.65892 395.81076 411.40143 395.49199 411.14258 395.17578 C 400.39422 381.31092 387.62842 368.99584 373.05859 358.82812 C 343.9817 338.63002 307.10952 329.99176 271.98828 329.51758 C 271.65809 324.62277 271.44879 318.79309 271.16992 313.25977 C 271.29074 302.22704 271.00189 291.17138 270.66406 280.16797 C 270.79584 276.75221 270.90014 273.28301 271.19922 270.17578 z M 277.86523 366.37109 C 280.66123 366.47409 283.55303 366.42903 286.33203 366.70703 C 324.88403 370.97203 357.35469 387.07875 381.92969 417.59375 C 394.75743 433.52201 403.78708 451.38664 408.15234 471.10547 C 408.61821 473.39408 409.03274 475.69819 409.43359 478.00781 C 409.55413 478.74927 409.72255 479.47227 409.83008 480.21875 C 406.09356 479.86385 402.39592 479.26624 398.70508 478.64258 C 396.39125 478.21932 394.0899 477.76378 391.79688 477.28906 C 389.44031 476.77947 387.09269 476.23606 384.76367 475.61719 C 383.33277 475.2601 381.90565 474.87199 380.48242 474.4668 C 376.5582 473.30254 372.67084 472.01635 368.84766 470.54297 C 368.57181 470.43515 368.29072 470.34002 368.01562 470.23047 C 364.82296 468.97894 361.71053 467.51704 358.60156 466.05273 C 357.0619 465.30504 355.48013 464.64167 353.96875 463.83984 C 353.94375 463.82658 353.91952 463.81211 353.89453 463.79883 C 332.3937 452.37588 313.81574 435.5549 299.83789 415.5918 C 298.59698 413.82822 297.53892 411.95586 296.38281 410.14062 C 292.80879 404.35156 289.51305 398.37085 286.74219 392.08594 C 284.43251 386.96478 282.51622 381.70737 280.69727 376.41406 C 279.66662 373.09404 278.6484 369.76848 277.86523 366.37109 z M 745.88281 366.37109 C 745.09964 369.76848 744.08142 373.09404 743.05078 376.41406 C 741.23183 381.70737 739.31553 386.96478 737.00586 392.08594 C 734.23499 398.37085 730.93925 404.35156 727.36523 410.14062 C 726.20912 411.95586 725.15107 413.82822 723.91016 415.5918 C 709.93231 435.5549 691.35435 452.37588 669.85352 463.79883 C 669.8329 463.80978 669.81359 463.82304 669.79297 463.83398 C 669.78859 463.83627 669.78368 463.83755 669.7793 463.83984 C 668.26791 464.64167 666.68615 465.30504 665.14648 466.05273 C 662.03752 467.51704 658.92509 468.97894 655.73242 470.23047 C 655.45733 470.34002 655.17624 470.43515 654.90039 470.54297 C 651.07721 472.01635 647.18985 473.30254 643.26562 474.4668 C 641.8424 474.87199 640.41528 475.2601 638.98438 475.61719 C 636.65536 476.23606 634.30774 476.77947 631.95117 477.28906 C 629.65815 477.76378 627.3568 478.21932 625.04297 478.64258 C 621.35213 479.26624 617.65448 479.86385 613.91797 480.21875 C 614.02549 479.47227 614.19392 478.74927 614.31445 478.00781 C 614.71531 475.69819 615.12984 473.39408 615.5957 471.10547 C 619.96097 451.38664 628.99061 433.52201 641.81836 417.59375 C 666.39336 387.07875 698.86402 370.97203 737.41602 366.70703 C 740.19502 366.42903 743.08681 366.47409 745.88281 366.37109 z M 409.00391 544.34375 L 409.11719 544.36523 C 409.37819 544.86723 409.40506 544.85091 409.53906 545.50391 C 409.64625 546.02334 409.64317 546.61906 409.60352 547.23438 C 400.82313 583.95211 380.90262 615.84267 348.52539 636.36133 C 332.56339 646.44633 314.61053 652.96003 295.89453 655.45703 C 290.19162 656.22279 284.20131 656.04584 278.58984 657.07812 C 278.61374 656.48648 278.7441 655.90124 278.82812 655.3125 C 279.64248 652.31382 280.59821 649.35024 281.5918 646.39648 C 282.11946 645.14597 282.63591 643.86268 283.12695 642.6543 C 290.17695 625.3043 298.30094 609.21363 310.58594 594.89062 C 333.8092 567.81635 370.96896 547.72127 406.9043 544.48438 C 407.60562 544.44183 408.29851 544.37476 409.00391 544.34375 z M 614.74414 544.34375 C 615.44953 544.37476 616.14243 544.44183 616.84375 544.48438 C 652.77909 547.72127 689.93884 567.81635 713.16211 594.89062 C 725.44711 609.21362 733.57305 625.3043 740.62305 642.6543 C 741.11277 643.85944 741.62605 645.13966 742.15234 646.38672 C 743.14725 649.34373 744.10466 652.31046 744.91992 655.3125 C 745.00394 655.90124 745.1343 656.48648 745.1582 657.07812 C 739.54674 656.04584 733.55643 656.22279 727.85352 655.45703 C 709.13752 652.96003 691.18466 646.44633 675.22266 636.36133 C 642.84542 615.84267 622.92492 583.95211 614.14453 547.23438 C 614.10487 546.61906 614.1018 546.02334 614.20898 545.50391 C 614.34298 544.85091 614.36986 544.86723 614.63086 544.36523 L 614.74414 544.34375 z "></path>
  <path class="border" d="M511.449 570.758C513.562 573.156 517.113 590.734 518.353 594.96C521.05 603.863 524.253 612.604 527.947 621.142C537.486 643.346 551.049 665.198 567.061 683.308C613.49 735.823 672.946 761.7 742.342 765.969C729.03 778.747 714.695 789.27 699.259 799.336C642.455 836.376 578.989 853.511 511.498 854.718C442.702 853.221 378.039 834.601 320.613 796.161C306.687 786.84 292.654 776.517 280.81 764.627C326.198 764.649 370.571 751.204 408.314 725.994C463.808 689.551 498.088 635.313 511.449 570.758ZM376.59 783.266C384.899 787.406 393.305 791.349 401.8 795.093C427.672 805.531 454.814 812.878 482.673 815.227C485.486 815.464 490.562 816.576 493.128 815.883C493.406 815.492 493.777 815.153 493.962 814.71C494.449 813.545 493.849 810.705 493.931 809.346C495.759 779.116 495.5 748.129 494.37 717.841C494.238 714.297 494.748 708.458 493.679 705.133C493.471 704.489 493.373 704.416 493.027 703.941C485.033 711.327 477.889 719.58 469.964 727.053C452.136 743.654 432.037 757.636 410.272 768.576C399.276 774.109 387.567 777.901 376.59 783.266ZM529.715 815.912C538.707 814.902 547.727 814.595 556.709 813.365C581.802 809.927 605.669 802.909 629.382 794.159C636.647 791.297 644.609 788.691 651.288 784.6C615.912 772.155 581.649 755.237 554.249 729.124C550.447 725.457 546.768 721.664 543.218 717.753C539.352 713.452 534.513 706.104 529.603 703.226C529.06 730.396 529.502 757.655 529.54 784.831C529.554 795.064 530.261 805.731 529.715 815.912Z"></path>
  <path class="border" d="M510.114 169.261L520.616 169.447C532.86 169.56 545.209 171.051 557.322 172.77C610.116 180.263 658.681 199.498 703.036 228.929C716.49 237.856 729.307 246.88 740.649 258.452C683.528 258.4 622.195 287.079 581.479 326.289C551.501 354.834 529.567 390.769 517.882 430.481C515.829 437.524 513.014 445.761 512.87 453.108L512.85 453.635L512.493 453.645C508.391 445.899 506.711 432.812 503.81 424.088C493.656 393.328 477.45 364.912 456.145 340.511C410.187 287.923 352.62 263.137 283.629 258.538C284.118 257.938 284.596 257.365 285.132 256.805C294.133 247.384 305.298 239.668 315.847 232.106C372.862 191.241 440.051 170.383 510.114 169.261ZM376.494 239.719C396.239 248.592 416.65 257.625 434.717 269.654C456.029 281.693 479.904 304.17 495.305 323.228C496.261 292.018 496.319 260.539 496.005 229.314C495.93 221.857 495.489 214.41 495.44 206.956C493.78 207.02 492.044 206.985 490.399 207.204C453.621 209.612 407.932 219.871 376.494 239.719ZM529.093 322.954C546.702 301.724 567.504 282.53 591.267 268.32C599.115 263.693 606.851 258.815 614.932 254.602C625.377 249.158 636.308 244.674 647.141 240.076C617.31 223.471 585.803 212.702 551.885 208.283C544.278 207.292 536.551 207.534 528.997 206.607C529.19 227.363 528.533 248.095 528.613 268.861C528.643 276.729 529.257 284.52 529.387 292.361C529.555 302.493 529.338 312.818 529.093 322.954Z"></path>
  <path class="primary" fill="#FEBD52" d="M227.581 401.516C231.372 392.018 235.814 382.947 240.429 373.824C242.708 379.476 244.639 385.32 246.705 391.057L249.503 398.39C267.798 438.922 295.486 474.064 335.529 494.946L252.699 495.129C237.299 495.206 221.837 496.025 206.453 495.09C210.09 460.089 214.917 434.403 227.581 401.516Z" data-darkreader-inline-fill="" style="--darkreader-inline-fill: var(--darkreader-background-febd52, #834d00);"></path>
  <path class="primary" fill="#FEBD52" d="M782.448 374.274C782.884 374.529 783.017 374.576 783.414 374.993C787.424 379.208 789.897 387.178 792.191 392.501C806.372 425.415 815.294 459.072 816.537 494.991C786.649 494.89 756.76 495.053 726.875 495.478C715.33 495.554 703.723 495.651 692.187 495.176C725.767 475.398 752.437 445.754 768.569 410.278C773.953 398.609 777.992 386.316 782.448 374.274Z" data-darkreader-inline-fill="" style="--darkreader-inline-fill: var(--darkreader-background-febd52, #834d00);"></path>
  <path class="secondary" fill="#F8D9A5" d="M234.645 528.758C225.402 528.496 216.129 528.568 206.881 528.496C208.851 572.645 218.79 610.051 241.42 648.101C247.254 632.531 252.754 616.799 260.771 602.179C277.268 570.974 303.173 546.268 333.76 529.142C300.829 527.913 267.629 529.108 234.645 528.758Z" data-darkreader-inline-fill="" style="--darkreader-inline-fill: var(--darkreader-background-f8d9a5, #523100);"></path>
  <path class="secondary" fill="#F8D9A5" d="M789.355 528.758C798.598 528.496 807.871 528.568 817.119 528.496C815.149 572.645 805.21 610.051 782.58 648.101C776.746 632.531 771.246 616.799 763.229 602.179C746.732 570.974 720.827 546.268 690.24 529.142C723.171 527.913 756.371 529.108 789.355 528.758Z" data-darkreader-inline-fill="" style="--darkreader-inline-fill: var(--darkreader-background-f8d9a5, #523100);"></path>
</svg></svg></g></g><defs><clipPath id="SvgjsClipPath1158"><rect width="1000" height="1000" x="0" y="0" rx="400" ry="400"></rect></clipPath></defs></svg>
