<svg width="500" height="500" viewBox="0 0 500 500" fill="none" xmlns="http://www.w3.org/2000/svg">
  <rect width="500" height="500" rx="200" fill="white"/>
  <path d="M132.421 131.922C131.706 132.301 131.115 132.744 130.519 133.29C127.25 136.284 124.38 139.93 121.499 143.3C121.436 143.375 121.378 143.453 121.315 143.528C110.444 156.289 101.761 170.9 95.399 186.474C94.8971 187.693 94.3941 188.912 93.9217 190.143C93.64 190.882 93.3756 191.627 93.1044 192.371C92.4596 194.126 91.8409 195.891 91.2562 197.668C91.1017 198.14 90.9506 198.613 90.8003 199.086C90.1302 201.187 89.5034 203.301 88.9178 205.429C88.848 205.683 88.7746 205.936 88.7061 206.19C86.7097 213.583 85.2096 221.123 84.2591 228.769C84.1959 229.272 84.1555 229.776 84.097 230.279C83.8849 232.124 83.6917 233.972 83.5419 235.828C83.4553 236.884 83.3961 237.94 83.3302 238.997C83.2789 239.833 83.2019 240.666 83.1633 241.504C83.1392 242.003 83.1439 242.5 83.1242 242.998C83.1039 243.542 83.0551 244.085 83.0403 244.628C83.0215 245.267 83.0433 245.902 83.0317 246.54C83.0023 248.132 82.9941 249.722 83.0098 251.311C83.0206 252.396 83.0373 253.479 83.0689 254.562C83.116 256.174 83.1941 257.783 83.2873 259.39C83.349 260.456 83.4059 261.522 83.4876 262.586C83.6123 264.203 83.7771 265.814 83.9482 267.425C84.059 268.472 84.1546 269.522 84.2848 270.566C84.4817 272.138 84.7268 273.702 84.9677 275.266C85.1334 276.346 85.2734 277.431 85.4598 278.507C85.5994 279.31 85.7788 280.103 85.9299 280.903C86.6139 284.538 87.414 288.145 88.3322 291.72C88.4526 292.186 88.5551 292.656 88.6794 293.121C89.2259 295.176 89.8321 297.212 90.4551 299.243C90.5636 299.595 90.6619 299.95 90.7727 300.301C91.4589 302.487 92.1987 304.654 92.9728 306.81C93.018 306.935 93.0609 307.06 93.1063 307.185C101.004 329.019 113.339 349.225 129.664 366.368C130.115 366.848 130.575 367.255 131.077 367.612C131.828 368.425 132.552 369.24 133.309 370.057C133.074 365.165 132.505 360.299 132.311 355.401C132.213 352.938 132.218 350.483 132.252 348.029C132.335 345.034 132.488 342.088 132.854 339.348C133.019 339.34 133.178 339.316 133.343 339.308C135.819 339.169 138.253 338.968 140.652 338.715C141.64 338.609 142.619 338.482 143.599 338.352C145.677 338.084 147.728 337.757 149.754 337.381C150.286 337.28 150.824 337.196 151.354 337.088C154.353 336.482 157.303 335.747 160.202 334.86C161.793 334.378 163.363 333.848 164.919 333.282C165.234 333.165 165.549 333.048 165.863 332.927C177.468 328.554 188.04 321.785 197.051 311.899C207.972 299.918 215.915 283.439 218.332 267.266C218.433 266.74 218.581 266.234 218.675 265.705C219.043 265.665 219.42 265.665 219.79 265.631L249.938 265.548L280.086 265.631C280.455 265.665 280.832 265.665 281.2 265.705C281.294 266.234 281.442 266.74 281.543 267.266C283.96 283.439 291.903 299.918 302.824 311.899C311.835 321.785 322.407 328.554 334.012 332.927C334.326 333.048 334.641 333.165 334.956 333.282C336.512 333.848 338.082 334.378 339.673 334.86C342.572 335.747 345.522 336.482 348.521 337.088C349.051 337.196 349.589 337.28 350.122 337.381C352.147 337.757 354.199 338.084 356.277 338.352C357.256 338.482 358.235 338.609 359.223 338.715C361.622 338.968 364.056 339.169 366.532 339.308C366.697 339.316 366.857 339.34 367.022 339.348C367.387 342.088 367.54 345.034 367.623 348.029C367.658 350.483 367.662 352.938 367.564 355.401C367.37 360.299 366.802 365.165 366.566 370.057C367.323 369.24 368.047 368.425 368.798 367.612C369.301 367.255 369.76 366.848 370.211 366.368C386.536 349.225 398.871 329.019 406.769 307.185C406.814 307.06 406.857 306.935 406.902 306.81C407.676 304.654 408.416 302.487 409.103 300.301C409.213 299.95 409.312 299.595 409.42 299.243C410.043 297.212 410.649 295.176 411.196 293.121C411.32 292.656 411.423 292.186 411.543 291.72C412.461 288.145 413.261 284.538 413.945 280.903C414.096 280.103 414.276 279.31 414.415 278.507C414.602 277.431 414.742 276.346 414.908 275.266C415.148 273.702 415.393 272.138 415.59 270.566C415.721 269.522 415.816 268.472 415.927 267.425C416.098 265.814 416.263 264.203 416.388 262.586C416.469 261.522 416.526 260.456 416.588 259.39C416.681 257.783 416.759 256.174 416.806 254.562C416.838 253.479 416.855 252.396 416.865 251.311C416.881 249.722 416.873 248.132 416.843 246.54C416.832 245.902 416.854 245.267 416.835 244.628C416.82 244.085 416.771 243.542 416.751 242.998C416.731 242.5 416.736 242.003 416.712 241.504C416.673 240.666 416.596 239.833 416.545 238.997C416.479 237.94 416.42 236.884 416.333 235.828C416.184 233.972 415.99 232.124 415.778 230.279C415.72 229.776 415.679 229.272 415.616 228.769C414.665 221.116 413.163 213.57 411.164 206.17C411.1 205.932 411.031 205.694 410.966 205.456C410.378 203.319 409.748 201.196 409.075 199.086C408.925 198.613 408.774 198.14 408.619 197.668C408.034 195.891 407.416 194.126 406.771 192.371C406.5 191.627 406.235 190.882 405.953 190.143C405.481 188.912 404.978 187.693 404.476 186.474C398.115 170.901 389.431 156.29 378.56 143.529C378.497 143.454 378.439 143.375 378.376 143.3C375.495 139.93 372.625 136.284 369.356 133.29C368.76 132.744 368.169 132.301 367.455 131.922C367.601 133.439 367.652 135.133 367.716 136.801C367.551 142.174 367.41 147.572 367.469 152.959C367.333 155.661 367.231 158.507 367.069 160.897C349.92 161.129 331.916 165.347 317.719 175.209C310.608 180.171 304.379 186.18 299.132 192.946C299 193.108 298.868 193.272 298.737 193.434C298.382 193.898 298.034 194.365 297.689 194.836C288.46 206.797 284.371 218.902 280.783 234.85C280.7 234.855 280.616 234.852 280.533 234.857C270.611 234.854 260.68 234.478 250.764 234.605L250.363 234.6C250.222 234.598 250.08 234.604 249.938 234.602C249.796 234.604 249.654 234.598 249.513 234.6L249.112 234.605C239.196 234.478 229.264 234.854 219.342 234.857C219.26 234.852 219.175 234.855 219.092 234.85C215.505 218.908 211.418 206.807 202.196 194.85C201.845 194.37 201.49 193.894 201.129 193.421C201.004 193.267 200.879 193.111 200.752 192.957C195.504 186.187 189.271 180.174 182.157 175.209C167.959 165.347 149.955 161.129 132.806 160.897C132.645 158.507 132.542 155.661 132.406 152.959C132.465 147.572 132.324 142.174 132.159 136.801C132.224 135.133 132.275 133.439 132.421 131.922ZM135.675 178.892C137.041 178.943 138.453 178.921 139.81 179.056C158.634 181.139 174.489 189.003 186.488 203.903C192.752 211.681 197.161 220.404 199.292 230.032C199.52 231.15 199.722 232.275 199.918 233.402C199.977 233.764 200.059 234.117 200.111 234.482C198.287 234.309 196.481 234.017 194.679 233.712C193.55 233.506 192.426 233.283 191.306 233.051C190.156 232.803 189.009 232.537 187.872 232.235C187.173 232.061 186.476 231.871 185.782 231.673C183.865 231.105 181.967 230.477 180.1 229.757C179.966 229.705 179.829 229.658 179.694 229.605C178.135 228.994 176.616 228.28 175.098 227.565C174.346 227.2 173.573 226.876 172.835 226.484C172.823 226.478 172.811 226.471 172.799 226.464C162.301 220.887 153.229 212.673 146.404 202.926C145.798 202.065 145.282 201.15 144.717 200.264C142.972 197.437 141.363 194.517 140.01 191.448C138.882 188.948 137.946 186.381 137.058 183.796C136.555 182.175 136.058 180.551 135.675 178.892ZM364.2 178.892C363.817 180.551 363.32 182.175 362.817 183.796C361.929 186.381 360.993 188.948 359.865 191.448C358.512 194.517 356.903 197.437 355.158 200.264C354.593 201.15 354.077 202.065 353.471 202.926C346.646 212.673 337.574 220.887 327.076 226.464C327.066 226.47 327.057 226.476 327.046 226.482C327.044 226.483 327.042 226.483 327.04 226.484C326.302 226.876 325.529 227.2 324.778 227.565C323.26 228.28 321.74 228.994 320.181 229.605C320.047 229.658 319.909 229.705 319.775 229.757C317.908 230.477 316.01 231.105 314.094 231.673C313.399 231.871 312.702 232.061 312.003 232.235C310.866 232.537 309.72 232.803 308.569 233.051C307.449 233.283 306.326 233.506 305.196 233.712C303.394 234.017 301.588 234.309 299.764 234.482C299.816 234.117 299.898 233.764 299.957 233.402C300.153 232.275 300.355 231.15 300.583 230.032C302.714 220.404 307.123 211.681 313.387 203.903C325.386 189.003 341.241 181.139 360.066 179.056C361.422 178.921 362.834 178.943 364.2 178.892ZM199.708 265.793L199.763 265.803C199.891 266.049 199.904 266.041 199.969 266.359C200.022 266.613 200.02 266.904 200.001 267.204C195.714 285.133 185.987 300.705 170.178 310.723C162.384 315.648 153.618 318.828 144.479 320.047C141.694 320.421 138.769 320.335 136.029 320.839C136.041 320.55 136.105 320.264 136.146 319.977C136.543 318.513 137.01 317.066 137.495 315.623C137.753 315.013 138.005 314.386 138.245 313.796C141.687 305.324 145.654 297.468 151.652 290.474C162.992 277.254 181.136 267.442 198.683 265.862C199.025 265.841 199.364 265.808 199.708 265.793ZM300.167 265.793C300.512 265.808 300.85 265.841 301.192 265.862C318.739 267.442 336.883 277.254 348.223 290.474C354.221 297.468 358.189 305.324 361.631 313.796C361.871 314.385 362.121 315.01 362.378 315.619C362.864 317.062 363.331 318.511 363.73 319.977C363.771 320.264 363.834 320.55 363.846 320.839C361.106 320.335 358.181 320.421 355.396 320.047C346.258 318.828 337.492 315.648 329.698 310.723C313.888 300.705 304.162 285.133 299.874 267.204C299.855 266.904 299.853 266.613 299.906 266.359C299.971 266.041 299.984 266.049 300.112 265.803L300.167 265.793Z" fill="black"/>
  <path d="M249.73 278.69C250.762 279.861 252.496 288.444 253.101 290.508C254.418 294.855 255.982 299.123 257.786 303.292C262.443 314.134 269.066 324.804 276.884 333.646C299.555 359.289 328.586 371.924 362.471 374.008C355.971 380.248 348.971 385.386 341.434 390.301C313.698 408.387 282.708 416.753 249.754 417.343C216.162 416.612 184.588 407.52 156.548 388.751C149.749 384.199 142.896 379.159 137.113 373.353C159.275 373.364 180.942 366.799 199.371 354.489C226.468 336.695 243.206 310.211 249.73 278.69ZM183.881 382.454C187.938 384.476 192.042 386.401 196.19 388.229C208.823 393.326 222.076 396.913 235.679 398.06C237.053 398.176 239.531 398.719 240.784 398.38C240.92 398.189 241.101 398.024 241.191 397.808C241.429 397.239 241.136 395.852 241.176 395.188C242.069 380.428 241.942 365.297 241.391 350.508C241.326 348.778 241.575 345.927 241.053 344.303C240.952 343.989 240.904 343.953 240.735 343.721C236.832 347.328 233.343 351.357 229.474 355.006C220.769 363.112 210.955 369.939 200.327 375.281C194.958 377.983 189.241 379.834 183.881 382.454ZM258.649 398.395C263.04 397.901 267.444 397.751 271.83 397.151C284.082 395.472 295.736 392.045 307.314 387.773C310.862 386.375 314.75 385.103 318.011 383.105C300.737 377.029 284.007 368.768 270.628 356.018C268.772 354.227 266.976 352.375 265.242 350.465C263.355 348.365 260.992 344.777 258.594 343.372C258.329 356.639 258.545 369.949 258.563 383.218C258.57 388.215 258.916 393.423 258.649 398.395Z" fill="black"/>
  <path d="M249.079 82.6465L254.207 82.7373C260.185 82.7925 266.215 83.5205 272.129 84.3599C297.908 88.0186 321.621 97.4106 343.279 111.781C349.848 116.14 356.106 120.546 361.645 126.197C333.753 126.171 303.806 140.175 283.925 159.32C269.287 173.258 258.577 190.805 252.872 210.195C251.869 213.634 250.495 217.656 250.424 221.244L250.415 221.501L250.24 221.506C248.237 217.724 247.417 211.334 246 207.074C241.042 192.054 233.129 178.179 222.727 166.265C200.286 140.587 172.177 128.484 138.49 126.239C138.729 125.946 138.962 125.666 139.224 125.393C143.619 120.792 149.071 117.025 154.222 113.333C182.061 93.3789 214.868 83.1943 249.079 82.6465ZM183.834 117.05C193.476 121.382 203.442 125.793 212.264 131.666C222.67 137.545 234.328 148.52 241.848 157.826C242.314 142.586 242.343 127.216 242.189 111.969C242.153 108.328 241.938 104.692 241.914 101.052C241.103 101.083 240.255 101.066 239.452 101.173C221.494 102.349 199.185 107.358 183.834 117.05ZM258.346 157.692C266.944 147.326 277.101 137.954 288.704 131.015C292.536 128.756 296.313 126.374 300.259 124.317C305.359 121.659 310.697 119.469 315.986 117.224C301.42 109.116 286.036 103.858 269.475 101.7C265.76 101.216 261.987 101.334 258.299 100.882C258.393 111.017 258.072 121.14 258.111 131.279C258.126 135.121 258.426 138.925 258.489 142.754C258.571 147.701 258.465 152.743 258.346 157.692Z" fill="black"/>
  <path d="M111.123 196.053C112.974 191.415 115.143 186.986 117.396 182.531C118.509 185.291 119.452 188.145 120.461 190.946L121.827 194.526C130.76 214.317 144.28 231.477 163.832 241.673L123.388 241.762C115.868 241.8 108.318 242.2 100.807 241.743C102.583 224.653 104.939 212.111 111.123 196.053Z" fill="#FEBD52"/>
  <path d="M382.055 182.751C382.268 182.875 382.333 182.898 382.527 183.102C384.485 185.16 385.692 189.052 386.812 191.651C393.737 207.722 398.093 224.156 398.7 241.695C384.106 241.646 369.512 241.725 354.92 241.933C349.283 241.97 343.615 242.017 337.982 241.785C354.379 232.128 367.401 217.653 375.278 200.331C377.907 194.633 379.879 188.631 382.055 182.751Z" fill="#FEBD52"/>
  <path d="M114.572 258.183C110.059 258.055 105.531 258.09 101.016 258.055C101.978 279.612 106.831 297.876 117.88 316.456C120.729 308.853 123.415 301.171 127.329 294.033C135.384 278.796 148.033 266.732 162.968 258.37C146.889 257.77 130.678 258.354 114.572 258.183Z" fill="#F8D9A5"/>
  <path d="M385.427 258.183C389.94 258.055 394.468 258.09 398.984 258.055C398.022 279.612 393.169 297.876 382.119 316.456C379.271 308.853 376.585 301.171 372.67 294.033C364.615 278.796 351.966 266.732 337.031 258.37C353.111 257.77 369.322 258.354 385.427 258.183Z" fill="#F8D9A5"/>
</svg>
